<svg id="Capa_1" enable-background="new 0 0 512 512" height="512" viewBox="0 0 512 512" width="512" xmlns="http://www.w3.org/2000/svg"><g><g><path d="m241 360h30v92h-30z" fill="#e1e6f0"/></g><path d="m256 360h15v92h-15z" fill="#cfd7e6"/><g><g><path d="m512 390h-512v-390h512z" fill="#4d5e80"/></g></g><path d="m256 0h256v390h-256z" fill="#3d4566"/><g id="Business_Recruitment_1_"><g><path d="m361 512h-210v-15c0-41.353 33.647-75 75-75h60c41.353 0 75 33.647 75 75z" fill="#f3f5f9"/></g><g><path d="m136 180c-24.814 0-45-20.186-45-45s20.186-45 45-45 45 20.186 45 45-20.186 45-45 45z" fill="#ffd9b3"/></g><g><path d="m211 300h-150v-41.792c0-38.203 26.88-71.382 62.505-77.197h.015c46.861-7.478 87.48 28.366 87.48 73.989z" fill="#82e1d8"/></g><g><path d="m241 270h120v30h-120z" fill="#f3f5f9"/></g><g><path d="m241 210h210v30h-210z" fill="#f3f5f9"/></g><g><path d="m241 150h210v30h-210z" fill="#f3f5f9"/></g><g><path d="m331 90h120v30h-120z" fill="#e1e6f0"/></g><g><path d="m241 90h60v30h-60z" fill="#f3f5f9"/></g><g><path d="m391 270h60v30h-60z" fill="#e1e6f0"/></g></g><g id="Business_Recruitment_3_"><g><path d="m136 180c-24.814 0-45-20.186-45-45s20.186-45 45-45 45 20.186 45 45-20.186 45-45 45z" fill="#ffd9b3"/></g><g><path d="m211 300h-150v-41.792c0-38.203 26.88-71.382 62.505-77.197h.015c46.861-7.478 87.48 28.366 87.48 73.989z" fill="#82e1d8"/></g></g><g fill="#e1e6f0"><path d="m286 422h-30v90h105v-15c0-41.353-33.647-75-75-75z"/><path d="m256 270h105v30h-105z"/><path d="m256 210h195v30h-195z"/><path d="m256 150h195v30h-195z"/><path d="m256 90h45v30h-45z"/></g></g></svg>